HIERARCHY
ROOT Hips
{
	OFFSET 0.000000 0.000000 0.000000
	CHANNELS 6 Xposition Yposition Zposition Zrotation Yrotation Xrotation 
	JOINT LHipJoint
	{
		OFFSET 0.000000 0.000000 0.000000
		CHANNELS 3 Zrotation Yrotation Xrotation
		JOINT LeftUpLeg
		{
			OFFSET 1.363060 -1.794630 0.839290
			CHANNELS 3 Zrotation Yrotation Xrotation
			JOINT LeftLeg
			{
				OFFSET 2.448110 -6.726130 0.000000
				CHANNELS 3 Zrotation Yrotation Xrotation
				JOINT LeftFoot
				{
					OFFSET 2.562200 -7.039590 0.000000
					CHANNELS 3 Zrotation Yrotation Xrotation
					JOINT LeftToeBase
					{
						OFFSET 0.157640 -0.433110 2.322550
						CHANNELS 3 Zrotation Yrotation Xrotation
						End Site
						{
							OFFSET 0.000000 0.000000 0.000000
						}
					}
				}
			}
		}
	}
	JOINT RHipJoint
	{
		OFFSET 0.000000 0.000000 0.000000
		CHANNELS 3 Zrotation Yrotation Xrotation
		JOINT RightUpLeg
		{
			OFFSET -1.305520 -1.794630 0.839290
			CHANNELS 3 Zrotation Yrotation Xrotation
			JOINT RightLeg
			{
				OFFSET -2.542530 -6.985550 0.000000
				CHANNELS 3 Zrotation Yrotation Xrotation
				JOINT RightFoot
				{
					OFFSET -2.568260 -7.056230 0.000000
					CHANNELS 3 Zrotation Yrotation Xrotation
					JOINT RightToeBase
					{
						OFFSET -0.164730 -0.452590 2.363150
						CHANNELS 3 Zrotation Yrotation Xrotation
						End Site
						{
							OFFSET 0.000000 0.000000 0.000000
						}
					}
				}
			}
		}
	}
}
MOTION
Frames: 11
Frame Time: 0.008333
-9.699016 16.841768 -0.721226 -11.279619 80.571853 -6.490241 -9.697563 2.071861 2.403935 -19.323551 7.013699 -32.064948 -2.696280 0.467464 24.134681 1.991820 8.415756 -13.705487 -0.954100 0.000001 -6.359000 10.471028 -4.356463 -1.205891 -1.164348 -18.166778 2.150410 -0.247201 -2.549027 37.007359 -0.375645 8.615567 25.123997 4.743600 0.000000 -88.770099
-9.463371 16.844094 -0.702459 -10.389208 80.698788 -5.683883 -9.730231 2.094423 2.380223 -19.224378 6.582275 -31.328389 -2.635320 0.540303 25.089497 2.055096 8.682502 -14.340665 -1.104600 -0.000000 -4.395900 10.612796 -4.173645 -1.245119 -1.495379 -17.965899 0.473992 -0.483127 -2.639477 40.454694 -0.634856 7.831654 27.125185 4.691300 -0.000000 -84.823800
-9.230872 16.846277 -0.681916 -9.290622 80.881540 -4.605496 -9.752262 2.125594 2.346686 -19.234643 6.246237 -30.672780 -2.600607 0.605903 25.969954 2.108503 8.859559 -15.028497 -1.262399 -0.000000 -2.822099 10.736111 -3.976423 -1.260326 -1.670415 -17.630710 -1.388714 -0.677991 -2.727093 43.868603 -0.868885 6.590624 28.275024 4.228201 0.000000 -79.972700
-9.001201 16.848558 -0.660190 -8.022606 81.097317 -3.296267 -9.765914 2.161911 2.306812 -19.321895 5.990995 -30.062156 -2.588092 0.659712 26.734275 2.153970 8.959318 -15.759583 -1.424700 0.000000 -1.611301 10.841140 -3.773901 -1.251912 -1.697640 -17.160597 -3.422738 -0.845955 -2.823451 47.194479 -1.068134 4.982841 28.506761 3.424401 -0.000000 -74.797799
-8.773977 16.851226 -0.637969 -6.627743 81.320067 -1.804568 -9.774008 2.199597 2.261479 -19.456081 5.803673 -29.459482 -2.593001 0.698465 27.349082 2.192700 8.996714 -16.509621 -1.586100 0.000001 -0.777300 10.928997 -3.570540 -1.218981 -1.593537 -16.545743 -5.603212 -0.999365 -2.933103 50.371926 -1.229124 3.140911 27.829990 2.410100 -0.000001 -69.790300
-8.548806 16.854483 -0.615944 -5.175054 81.524724 -0.208802 -9.779022 2.235015 2.209629 -19.608921 5.675117 -28.831057 -2.610506 0.720093 27.793647 2.225759 8.987286 -17.254980 -1.742200 0.000000 -0.266200 11.001129 -3.367707 -1.159669 -1.379053 -15.773245 -7.895095 -1.144724 -3.054953 53.339324 -1.351520 1.212395 26.305320 1.336700 -0.000000 -65.206000
-8.325266 16.858491 -0.594777 -3.747977 81.688996 1.394220 -9.782877 2.265752 2.148805 -19.757185 5.600665 -28.146917 -2.635886 0.724001 28.058072 2.253819 8.947209 -17.968730 -1.888501 0.000000 -0.022601 11.059024 -3.164443 -1.072161 -1.082771 -14.834843 -10.254324 -1.281629 -3.183935 56.033770 -1.437024 -0.665632 24.031070 0.342500 0.000000 -61.108000
-8.102967 16.863339 -0.575041 -2.438067 81.796124 2.897970 -9.786662 2.290466 2.075558 -19.882996 5.578034 -27.383461 -2.664920 0.710892 28.141336 2.277574 8.892972 -18.626777 177.978200 -0.000000 -0.025700 11.103779 -2.958100 -0.956056 -0.737797 -13.732137 -12.631732 -1.403462 -3.312818 58.393176 -1.489361 -2.384378 21.136511 -0.470500 0.000000 -57.432500
-7.881459 16.869035 -0.557199 -1.332314 81.837283 4.200002 -9.791040 2.308991 1.986772 -19.974236 5.605867 -26.524355 -2.693926 0.682641 28.051583 2.297912 8.840797 -19.211114 -2.140800 0.000000 -0.040399 11.135461 -2.745668 -0.812682 -0.377583 -12.482187 -14.978074 -1.499387 -3.433673 60.359722 -1.514577 -3.871365 17.778585 -1.046100 0.000001 -54.056199
-7.660341 16.875520 -0.541597 -0.489454 81.813405 5.227535 -9.796606 2.321926 1.880936 -20.023865 5.681854 -25.560639 -2.719967 0.641682 27.803076 2.315782 8.804238 -19.711574 -2.245700 -0.000001 -0.145400 11.152791 -2.524792 -0.645066 -0.031445 -11.119105 -17.250639 -1.557457 -3.539084 61.884538 -1.521192 -5.092738 14.138697 -1.374400 0.000000 -50.877201
-7.439102 16.882693 -0.528410 0.067886 81.734957 5.946898 -9.803830 2.330176 1.758409 -20.029892 5.801094 -24.491443 -2.740943 0.590671 27.414291 2.332110 8.792748 -20.125984 -2.338099 0.000001 -0.230199 11.153432 -2.294092 -0.458920 0.280260 -9.694910 -19.418645 -1.568184 -3.623164 62.933057 -1.519467 -6.050663 10.411532 -1.483600 -0.000000 -47.835300
